<svg width="26" height="26" viewBox="0 0 26 26" fill="none" xmlns="http://www.w3.org/2000/svg">
<mask id="path-1-inside-1_4272_15783" fill="white">
<path d="M11.5034 20.2C12.368 17.05 15.3913 14.8 18.8737 15.172C22.1892 15.526 24.8249 18.34 24.9918 21.688C25.0336 22.57 24.9143 23.416 24.6579 24.202C24.5029 24.682 24.0377 25 23.5309 25H5.77168C2.76153 25 0.503912 22.2286 1.09426 19.2586L4.72338 1H11.8791L14.2643 5.2L9.15393 8.878L7.70491 7"/>
</mask>
<path d="M18.8737 15.172L18.8402 15.486L18.8402 15.486L18.8737 15.172ZM24.9918 21.688L25.3073 21.6731L25.3072 21.6723L24.9918 21.688ZM24.6579 24.202L24.3577 24.1041L24.3574 24.1049L24.6579 24.202ZM1.09426 19.2586L1.40399 19.3202L1.40399 19.3202L1.09426 19.2586ZM4.72338 1V0.68421H4.46418L4.41365 0.938437L4.72338 1ZM11.8791 1L12.1536 0.844053L12.0629 0.68421H11.8791V1ZM14.2643 5.2L14.4487 5.45631L14.6789 5.29065L14.5389 5.04405L14.2643 5.2ZM9.15393 8.878L8.90391 9.07091L9.0905 9.31273L9.3384 9.13431L9.15393 8.878ZM11.8079 20.2836C12.6334 17.2761 15.5186 15.1312 18.8402 15.486L18.9073 14.858C15.264 14.4688 12.1026 16.8239 11.1989 20.1164L11.8079 20.2836ZM18.8402 15.486C21.9991 15.8233 24.5171 18.509 24.6764 21.7037L25.3072 21.6723C25.1326 18.171 22.3792 15.2287 18.9073 14.858L18.8402 15.486ZM24.6764 21.7029C24.7163 22.5467 24.6022 23.3544 24.3577 24.1041L24.9581 24.2999C25.2264 23.4776 25.3508 22.5933 25.3073 21.6731L24.6764 21.7029ZM24.3574 24.1049C24.2473 24.4458 23.9101 24.6842 23.5309 24.6842V25.3158C24.1654 25.3158 24.7584 24.9182 24.9584 24.2991L24.3574 24.1049ZM23.5309 24.6842H5.77168V25.3158H23.5309V24.6842ZM5.77168 24.6842C2.96309 24.6842 0.851986 22.0973 1.40399 19.3202L0.784525 19.197C0.155837 22.3599 2.55997 25.3158 5.77168 25.3158V24.6842ZM1.40399 19.3202L5.03311 1.06156L4.41365 0.938437L0.784525 19.197L1.40399 19.3202ZM4.72338 1.31579H11.8791V0.68421H4.72338V1.31579ZM11.6045 1.15595L13.9897 5.35595L14.5389 5.04405L12.1536 0.844053L11.6045 1.15595ZM14.0798 4.94369L8.96946 8.62169L9.3384 9.13431L14.4487 5.45631L14.0798 4.94369ZM9.40395 8.68509L7.95493 6.80709L7.45489 7.19291L8.90391 9.07091L9.40395 8.68509Z" fill="#B1BFD9" mask="url(#path-1-inside-1_4272_15783)"/>
<path d="M10.8943 20.0328C10.802 20.3692 10.9998 20.7167 11.3362 20.8091C11.6726 20.9014 12.0201 20.7035 12.1124 20.3672L10.8943 20.0328ZM18.8737 15.172L18.8066 15.8L18.8067 15.8L18.8737 15.172ZM24.9918 21.688L25.6227 21.6581L25.6226 21.6565L24.9918 21.688ZM24.6579 24.202L24.0575 24.0061L24.0569 24.0079L24.6579 24.202ZM1.09426 19.2586L1.71372 19.3817L1.71372 19.3817L1.09426 19.2586ZM4.72338 1V0.368421C4.42203 0.368421 4.16266 0.581312 4.10391 0.876874L4.72338 1ZM11.8791 1L12.4282 0.688107C12.316 0.490503 12.1063 0.368421 11.8791 0.368421V1ZM14.2643 5.2L14.6332 5.71262C14.8951 5.52416 14.9728 5.16864 14.8135 4.88811L14.2643 5.2ZM9.15393 8.878L8.6539 9.26382C8.86197 9.53349 9.24641 9.58959 9.52287 9.39062L9.15393 8.878ZM12.1124 20.3672C12.8988 17.5022 15.6459 15.4624 18.8066 15.8L18.9408 14.544C15.1367 14.1376 11.8372 16.5978 10.8943 20.0328L12.1124 20.3672ZM18.8067 15.8C21.8091 16.1206 24.2094 18.678 24.361 21.7195L25.6226 21.6565C25.4404 18.002 22.5693 14.9314 18.9408 14.544L18.8067 15.8ZM24.361 21.7179C24.3991 22.5233 24.2901 23.2929 24.0575 24.0061L25.2583 24.3979C25.5385 23.5391 25.6681 22.6167 25.6227 21.6581L24.361 21.7179ZM24.0569 24.0079C23.9917 24.2097 23.7825 24.3684 23.5309 24.3684V25.6316C24.293 25.6316 25.014 25.1543 25.2589 24.3961L24.0569 24.0079ZM23.5309 24.3684H5.77168V25.6316H23.5309V24.3684ZM5.77168 24.3684C3.16465 24.3684 1.20006 21.9659 1.71372 19.3817L0.474795 19.1355C-0.192237 22.4913 2.35841 25.6316 5.77168 25.6316V24.3684ZM1.71372 19.3817L5.34284 1.12313L4.10391 0.876874L0.474794 19.1355L1.71372 19.3817ZM4.72338 1.63158H11.8791V0.368421H4.72338V1.63158ZM11.3299 1.31189L13.7151 5.51189L14.8135 4.88811L12.4282 0.688107L11.3299 1.31189ZM13.8953 4.68738L8.78499 8.36538L9.52287 9.39062L14.6332 5.71262L13.8953 4.68738ZM9.65397 8.49218L8.20494 6.61418L7.20487 7.38582L8.6539 9.26382L9.65397 8.49218Z" fill="#B1BFD9"/>
<path d="M11.2691 19.1638C11.3596 19.5007 11.7061 19.7004 12.0429 19.6099C12.3798 19.5194 12.5795 19.1729 12.489 18.8361L11.2691 19.1638ZM8.54996 9.04179L11.2691 19.1638L12.489 18.8361L9.76987 8.71407L8.54996 9.04179Z" fill="#B1BFD9"/>
</svg>
