<svg width="60" height="60" viewBox="0 0 60 60" fill="none" xmlns="http://www.w3.org/2000/svg">
<mask id="path-1-inside-1_662_8180" fill="white">
<path fill-rule="evenodd" clip-rule="evenodd" d="M60 19.6784C58.7462 41.3737 41.3737 58.7462 19.6784 60C8.66031 59.0971 0 49.8689 0 38.618V21.4544C0 9.60547 9.60549 0 21.4545 0H38.618C49.8689 0 59.0971 8.66033 60 19.6784Z"/>
</mask>
<path fill-rule="evenodd" clip-rule="evenodd" d="M60 19.6784C58.7462 41.3737 41.3737 58.7462 19.6784 60C8.66031 59.0971 0 49.8689 0 38.618V21.4544C0 9.60547 9.60549 0 21.4545 0H38.618C49.8689 0 59.0971 8.66033 60 19.6784Z" fill="#B1BFD9" fill-opacity="0.4"/>
<path d="M60 19.6784L63.427 19.8764L63.4408 19.637L63.4212 19.398L60 19.6784ZM19.6784 60L19.398 63.4212L19.637 63.4408L19.8764 63.427L19.6784 60ZM56.573 19.4803C55.4197 39.4357 39.4357 55.4197 19.4803 56.573L19.8764 63.427C43.3117 62.0726 62.0726 43.3117 63.427 19.8764L56.573 19.4803ZM19.9587 56.5788C10.7071 55.8206 3.43271 48.0671 3.43271 38.618H-3.43271C-3.43271 51.6708 6.6135 62.3736 19.398 63.4212L19.9587 56.5788ZM3.43271 38.618V21.4544H-3.43271V38.618H3.43271ZM3.43271 21.4544C3.43271 11.5013 11.5013 3.43271 21.4545 3.43271V-3.43271C7.70966 -3.43271 -3.43271 7.70964 -3.43271 21.4544H3.43271ZM21.4545 3.43271H38.618V-3.43271H21.4545V3.43271ZM38.618 3.43271C48.0671 3.43271 55.8206 10.7071 56.5788 19.9587L63.4212 19.398C62.3736 6.61352 51.6708 -3.43271 38.618 -3.43271V3.43271Z" fill="white" fill-opacity="0.6" mask="url(#path-1-inside-1_662_8180)"/>
<path d="M14.589 14.5889V25.5111H17.3196V28.2417H20.0502V25.5111H25.5113V14.5889H14.589ZM25.5113 25.5111V28.2417H28.2419V30.9723H22.7807V33.7028H14.589V44.6251H25.5113V33.7028H33.703V30.9723H30.9724V28.2417H36.4336V25.5111H39.1641V28.2417H41.8947V25.5111H44.6253V14.5889H33.703V25.5111H25.5113ZM41.8947 28.2417V30.9723H44.6253V28.2417H41.8947ZM41.8947 30.9723H39.1641V33.7028H41.8947V30.9723ZM41.8947 33.7028V36.4334H44.6253V33.7028H41.8947ZM41.8947 36.4334H39.1641V33.7028H36.4336V36.4334H29.6071V44.6251H32.3377V39.164H37.7988V41.8945H40.5294V39.164H41.8947V36.4334ZM37.7988 41.8945H35.0683V44.6251H37.7988V41.8945ZM39.1641 30.9723V28.2417H36.4336V30.9723H39.1641ZM22.7807 30.9723V28.2417H20.0502V30.9723H22.7807ZM17.3196 28.2417H14.589V30.9723H17.3196V28.2417ZM28.2419 14.5889V20.05H26.8766V22.7806H28.2419V24.1459H30.9724V20.05H32.3377V17.3194H30.9724V14.5889H28.2419ZM17.3196 17.3194H22.7807V22.7806H17.3196V17.3194ZM36.4336 17.3194H41.8947V22.7806H36.4336V17.3194ZM18.6849 18.6847V21.4153H21.4154V18.6847H18.6849ZM37.7988 18.6847V21.4153H40.5294V18.6847H37.7988ZM17.3196 36.4334H22.7807V41.8945H17.3196V36.4334ZM18.6849 37.7987V40.5293H21.4154V37.7987H18.6849ZM41.8947 41.8945V44.6251H44.6253V41.8945H41.8947Z" fill="white"/>
</svg>
