<svg width="131" height="26" viewBox="0 0 131 26" fill="none" xmlns="http://www.w3.org/2000/svg">
<g clip-path="url(#clip0_5_118)">
<path fill-rule="evenodd" clip-rule="evenodd" d="M51.4333 20.056C46.6175 23.61 39.6357 25.5 33.6233 25.5C25.1974 25.5 17.6095 22.3852 11.8672 17.2004C11.4169 16.7929 11.8185 16.2369 12.3604 16.5522C18.5552 20.1571 26.2169 22.3284 34.129 22.3284C39.4667 22.3284 45.3344 21.2203 50.7334 18.9301C51.5477 18.5854 52.2306 19.4669 51.4333 20.056Z" fill="#F79C34"/>
<path fill-rule="evenodd" clip-rule="evenodd" d="M53.4377 17.7674C52.8212 16.9789 49.3661 17.3938 47.8135 17.5798C47.3432 17.6367 47.2702 17.2255 47.6939 16.9279C50.4506 14.9915 54.9681 15.5503 55.493 16.1993C56.0216 16.8526 55.3535 21.3819 52.771 23.5428C52.3731 23.8751 51.9951 23.6979 52.1715 23.2593C52.7533 21.8072 54.0541 18.5573 53.4377 17.7674Z" fill="#F79C34"/>
<path fill-rule="evenodd" clip-rule="evenodd" d="M47.9228 3.24933V1.36822C47.9243 1.08177 48.1398 0.891296 48.3997 0.892035L56.8322 0.891296C57.1017 0.891296 57.3187 1.08694 57.3187 1.366V2.97912C57.3158 3.25007 57.0877 3.60296 56.6838 4.1633L52.3155 10.4002C53.9367 10.3625 55.6517 10.6054 57.1253 11.433C57.4575 11.6198 57.5469 11.8967 57.5727 12.1676V14.175C57.5727 14.4518 57.27 14.7715 56.9511 14.6054C54.3561 13.2455 50.912 13.0971 48.0416 14.6216C47.7486 14.7781 47.4422 14.4622 47.4422 14.1853V12.2769C47.4422 11.972 47.4481 11.4493 47.7559 10.9842L52.816 3.72403L48.41 3.7233C48.1406 3.7233 47.9243 3.53135 47.9228 3.24933Z" fill="#333E47"/>
<path fill-rule="evenodd" clip-rule="evenodd" d="M17.1636 15.0003H14.5981C14.3537 14.9848 14.1588 14.8017 14.1389 14.567L14.1411 1.39993C14.1411 1.13711 14.3626 0.926704 14.6365 0.926704L17.0255 0.925966C17.275 0.938516 17.4758 1.12751 17.4913 1.36819V3.08688H17.5401C18.1624 1.4243 19.3355 0.648376 20.9162 0.648376C22.5204 0.648376 23.5267 1.4243 24.245 3.08688C24.8674 1.4243 26.2804 0.648376 27.7887 0.648376C28.8666 0.648376 30.0397 1.09208 30.758 2.08948C31.5723 3.19836 31.4055 4.80483 31.4055 6.21788L31.4025 14.5271C31.4025 14.7892 31.1818 15.0003 30.9079 15.0003H28.3461C28.0877 14.9841 27.8854 14.7803 27.8854 14.5278L27.8847 7.5475C27.8847 6.9938 27.9327 5.60881 27.8123 5.08242C27.6211 4.19502 27.0468 3.94549 26.3048 3.94549C25.6817 3.94549 25.035 4.36113 24.7714 5.02557C24.5079 5.69149 24.5322 6.79889 24.5322 7.5475V14.5271C24.5322 14.7892 24.3107 15.0003 24.0376 15.0003H21.475C21.2174 14.9841 21.0144 14.7803 21.0144 14.5278L21.0114 7.5475C21.0114 6.07908 21.2513 3.91891 19.4315 3.91891C17.5873 3.91891 17.6597 6.02371 17.6597 7.5475L17.6582 14.5271C17.6582 14.7892 17.4367 15.0003 17.1636 15.0003Z" fill="#333E47"/>
<path fill-rule="evenodd" clip-rule="evenodd" d="M64.601 3.33641C62.7096 3.33641 62.59 5.91223 62.59 7.51945C62.59 9.12666 62.5664 12.5626 64.5781 12.5626C66.5656 12.5626 66.6615 9.79184 66.6615 8.10194C66.6615 6.9938 66.6128 5.66344 66.2776 4.61067C65.9904 3.69595 65.4153 3.33641 64.601 3.33641ZM64.5781 0.648376C68.3854 0.648376 70.4444 3.91891 70.4444 8.07462C70.4444 12.0908 68.1698 15.2779 64.5781 15.2779C60.8418 15.2779 58.8064 12.0081 58.8064 7.93583C58.8064 3.83474 60.8654 0.648376 64.5781 0.648376Z" fill="#333E47"/>
<path fill-rule="evenodd" clip-rule="evenodd" d="M75.3827 15.0003H72.8261C72.5699 14.9841 72.3661 14.7803 72.3661 14.5278L72.3617 1.35638C72.3839 1.11496 72.5965 0.926704 72.8549 0.926704L75.2343 0.925966C75.4587 0.937778 75.6433 1.08986 75.6906 1.29436V3.30836H75.7385C76.4576 1.50698 77.4624 0.648376 79.2343 0.648376C80.3837 0.648376 81.5096 1.06402 82.2279 2.20022C82.8983 3.25299 82.8983 5.02557 82.8983 6.30056V14.5862C82.8702 14.8194 82.6606 15.0003 82.4066 15.0003H79.8352C79.5975 14.9856 79.4063 14.8106 79.3782 14.5862V7.4375C79.3782 5.9964 79.5465 3.89012 77.774 3.89012C77.1516 3.89012 76.5765 4.30576 76.2893 4.94289C75.9298 5.74686 75.8818 6.5501 75.8818 7.4375V14.5271C75.8773 14.7892 75.6559 15.0003 75.3827 15.0003Z" fill="#333E47"/>
<path fill-rule="evenodd" clip-rule="evenodd" d="M43.7863 14.9679C43.6172 15.1199 43.3728 15.1303 43.1809 15.0277C42.3289 14.3197 42.1761 13.9926 41.7103 13.3178C40.3024 14.7523 39.305 15.1827 37.4807 15.1827C35.3213 15.1827 33.641 13.8494 33.641 11.1842C33.641 9.10158 34.7698 7.68558 36.377 6.99161C37.7686 6.38032 39.7125 6.26958 41.2009 6.10273V5.76977C41.2009 5.15775 41.2488 4.4372 40.8886 3.90933C40.5763 3.43684 39.9768 3.24268 39.4489 3.24268C38.47 3.24268 37.6011 3.74396 37.387 4.78271C37.3419 5.01378 37.1736 5.24339 36.9418 5.2552L34.4545 4.98573C34.2449 4.93774 34.0116 4.76942 34.0714 4.44901C34.6362 1.47452 37.2925 0.547257 39.7066 0.522156H39.8971C41.1329 0.537659 42.7113 0.876525 43.6726 1.79862C44.921 2.96509 44.7999 4.51988 44.7999 6.21421V10.2105C44.7999 11.4131 45.2997 11.9402 45.7685 12.5877C45.9332 12.8217 45.9693 13.0986 45.7604 13.2698C45.2362 13.7091 44.3053 14.5175 43.7937 14.9738L43.7863 14.9679ZM41.2009 8.71325C41.2009 9.71287 41.2245 10.5456 40.721 11.4345C40.3127 12.1558 39.6645 12.6002 38.9447 12.6002C37.9613 12.6002 37.3855 11.8509 37.3855 10.7398C37.3855 8.55452 39.3448 8.15733 41.2009 8.15733V8.71325Z" fill="#333E47"/>
<path fill-rule="evenodd" clip-rule="evenodd" d="M10.1574 14.9679C9.98758 15.1199 9.74247 15.1303 9.55126 15.0277C8.69856 14.3197 8.54574 13.9926 8.08063 13.3178C6.67201 14.7523 5.67535 15.1827 3.85109 15.1827C1.69165 15.1827 0.0113525 13.8494 0.0113525 11.1842C0.0113525 9.10158 1.13869 7.68558 2.74738 6.99161C4.13901 6.38032 6.08288 6.26958 7.57049 6.10273V5.76977C7.57049 5.15775 7.61921 4.4372 7.25894 3.90933C6.94665 3.43684 6.34644 3.24268 5.81931 3.24268C4.84037 3.24268 3.96995 3.74396 3.75733 4.78271C3.71303 5.01378 3.54397 5.24339 3.31141 5.2552L0.824925 4.98573C0.614518 4.93774 0.381225 4.76942 0.441763 4.44901C1.00506 1.47452 3.66209 0.547257 6.07697 0.522156H6.26744C7.50331 0.537659 9.08172 0.876525 10.043 1.79862C11.2906 2.96509 11.1703 4.51988 11.1703 6.21421V10.2105C11.1703 11.4131 11.6701 11.9402 12.1389 12.5877C12.3021 12.8217 12.3397 13.0986 12.1308 13.2698C11.6066 13.7091 10.6749 14.5175 10.1633 14.9738L10.1574 14.9679ZM7.57049 8.71325C7.57049 9.71287 7.59485 10.5456 7.09061 11.4345C6.68309 12.1558 6.03489 12.6002 5.31434 12.6002C4.33096 12.6002 3.75511 11.8509 3.75511 10.7398C3.75511 8.55452 5.71522 8.15733 7.57049 8.15733V8.71325Z" fill="#333E47"/>
<path fill-rule="evenodd" clip-rule="evenodd" d="M117.967 19.7238C117.967 19.3901 117.967 19.0904 117.967 18.7567C117.967 18.4813 118.102 18.2915 118.389 18.3085C118.925 18.3846 119.683 18.4606 120.221 18.3499C120.924 18.2037 121.429 17.7054 121.727 17.0225C122.147 16.0612 122.425 15.2861 122.601 14.7774L117.264 1.55647C117.174 1.33203 117.147 0.915649 117.595 0.915649H119.461C119.817 0.915649 119.962 1.14156 120.041 1.36304L123.911 12.1019L127.604 1.36304C127.679 1.14304 127.831 0.915649 128.184 0.915649H129.943C130.388 0.915649 130.363 1.33129 130.274 1.55647L124.98 15.1901C124.295 17.0047 123.383 19.8951 121.327 20.3971C120.297 20.6666 118.997 20.5691 118.233 20.2494C118.041 20.1527 117.967 19.8943 117.967 19.7238Z" fill="#333E47"/>
<path fill-rule="evenodd" clip-rule="evenodd" d="M115.478 14.1949C115.478 14.4407 115.277 14.6423 115.029 14.6423H113.714C113.429 14.6423 113.235 14.437 113.199 14.1949L113.067 13.2994C112.462 13.811 111.72 14.2606 110.916 14.5736C109.368 15.1746 107.585 15.2742 106.073 14.3455C104.979 13.6744 104.399 12.3625 104.399 11.0093C104.399 9.96239 104.722 8.92439 105.437 8.17061C106.391 7.14073 107.775 6.63502 109.446 6.63502C110.455 6.63502 111.899 6.75388 112.95 7.09717V5.29506C112.95 3.46267 112.178 2.66977 110.144 2.66977C108.589 2.66977 107.4 2.90454 105.745 3.41912C105.48 3.42797 105.325 3.22643 105.325 2.98058V1.95291C105.325 1.70633 105.535 1.46787 105.763 1.39552C106.945 0.880209 108.62 0.559062 110.4 0.5C112.72 0.5 115.478 1.02343 115.478 4.59222V14.1949ZM112.95 11.5637V8.84465C112.067 8.60324 110.606 8.50284 110.04 8.50284C109.147 8.50284 108.168 8.71398 107.658 9.26399C107.276 9.66709 107.103 10.2459 107.103 10.8055C107.103 11.529 107.353 12.2547 107.938 12.6135C108.617 13.0749 109.671 13.0188 110.661 12.7375C111.613 12.4673 112.506 11.9897 112.95 11.5637Z" fill="#333E47"/>
<path fill-rule="evenodd" clip-rule="evenodd" d="M96.0801 2.71037C98.9992 2.71037 99.7943 5.00565 99.7943 7.63389C99.8105 9.40574 99.485 10.9856 98.5673 11.89C97.8807 12.567 97.1136 12.7516 95.959 12.7516C94.9313 12.7516 93.5796 12.2156 92.5696 11.4692V3.95436C93.6209 3.14669 94.9623 2.71037 96.0801 2.71037ZM92.1222 20.1955H90.36C90.1134 20.1955 89.9118 19.994 89.9118 19.7481C89.9118 13.6279 89.9118 7.50691 89.9118 1.38666C89.9118 1.14081 90.1134 0.939267 90.36 0.939267H91.7088C91.9923 0.939267 92.1864 1.14451 92.2226 1.38666L92.3644 2.34862C93.6275 1.22719 95.2539 0.508118 96.8036 0.508118C101.144 0.508118 102.571 4.08429 102.571 7.80295C102.571 11.7815 100.388 14.9782 96.6958 14.9782C95.141 14.9782 93.6873 14.4046 92.5696 13.4079V19.7481C92.5696 19.994 92.3681 20.1955 92.1222 20.1955Z" fill="#333E47"/>
</g>
<defs>
<clipPath id="clip0_5_118">
<rect width="130.316" height="25" fill="white" transform="translate(0.0113525 0.5)"/>
</clipPath>
</defs>
</svg>
