<svg width="94" height="26" viewBox="0 0 94 26" fill="none" xmlns="http://www.w3.org/2000/svg">
<g clip-path="url(#clip0_5_85)">
<path d="M35.0083 5.61285H29.8273C29.4727 5.61285 29.1712 5.87043 29.1159 6.22043L27.0205 19.506C26.9788 19.7682 27.1818 20.0045 27.4477 20.0045H29.9212C30.2758 20.0045 30.5773 19.7469 30.6326 19.3962L31.1977 15.8129C31.2523 15.4621 31.5545 15.2045 31.9083 15.2045H33.5485C36.9614 15.2045 38.9311 13.553 39.4455 10.2803C39.6773 8.84846 39.4553 7.72346 38.7848 6.93558C38.0485 6.07043 36.7424 5.61285 35.0083 5.61285ZM35.6061 10.4651C35.3227 12.3242 33.9023 12.3242 32.5288 12.3242H31.747L32.2955 8.85225C32.328 8.6424 32.5098 8.48785 32.722 8.48785H33.0803C34.0159 8.48785 34.8985 8.48785 35.3545 9.02119C35.6265 9.33937 35.7098 9.8121 35.6061 10.4651Z" fill="#253B80"/>
<path d="M50.4954 10.4053H48.0144C47.803 10.4053 47.6204 10.5599 47.5879 10.7697L47.478 11.4637L47.3045 11.2121C46.7674 10.4326 45.5697 10.172 44.3742 10.172C41.6326 10.172 39.2909 12.2485 38.8348 15.1614C38.5977 16.6144 38.9348 18.0038 39.7591 18.9728C40.5151 19.8637 41.597 20.2349 42.8841 20.2349C45.0932 20.2349 46.3182 18.8144 46.3182 18.8144L46.2076 19.5038C46.1659 19.7675 46.3689 20.0038 46.6333 20.0038H48.8682C49.2235 20.0038 49.5235 19.7462 49.5795 19.3955L50.9204 10.9038C50.9629 10.6425 50.7606 10.4053 50.4954 10.4053ZM47.0371 15.2341C46.7977 16.6515 45.6727 17.6031 44.2379 17.6031C43.5174 17.6031 42.9417 17.372 42.572 16.9341C42.2053 16.4993 42.0659 15.8803 42.1826 15.1909C42.4061 13.7856 43.55 12.8031 44.9629 12.8031C45.6674 12.8031 46.2401 13.0371 46.6174 13.4788C46.9954 13.925 47.1454 14.5478 47.0371 15.2341Z" fill="#253B80"/>
<path d="M63.7091 10.4053H61.2159C60.978 10.4053 60.7546 10.5235 60.6197 10.7212L57.1811 15.7863L55.7235 10.9189C55.6318 10.6144 55.3508 10.4053 55.0326 10.4053H52.5826C52.2849 10.4053 52.078 10.6962 52.1727 10.9765L54.9189 19.0356L52.3371 22.6803C52.1341 22.9674 52.3386 23.3621 52.6894 23.3621H55.1796C55.4159 23.3621 55.6371 23.2469 55.7712 23.053L64.0636 11.0833C64.2621 10.7969 64.0583 10.4053 63.7091 10.4053Z" fill="#253B80"/>
<path d="M71.9637 5.61285H66.7818C66.4281 5.61285 66.1265 5.87043 66.0712 6.22043L63.9758 19.506C63.9341 19.7682 64.1371 20.0045 64.4015 20.0045H67.0606C67.3076 20.0045 67.519 19.8242 67.5576 19.5788L68.1523 15.8129C68.2068 15.4621 68.5091 15.2045 68.8629 15.2045H70.5023C73.9159 15.2045 75.8849 13.553 76.4 10.2803C76.6326 8.84846 76.4091 7.72346 75.7387 6.93558C75.003 6.07043 73.6977 5.61285 71.9637 5.61285ZM72.5614 10.4651C72.2788 12.3242 70.8584 12.3242 69.4841 12.3242H68.7031L69.2523 8.85225C69.2849 8.6424 69.4652 8.48785 69.678 8.48785H70.0364C70.9712 8.48785 71.8546 8.48785 72.3106 9.02119C72.5826 9.33937 72.6652 9.8121 72.5614 10.4651Z" fill="#179BD7"/>
<path d="M87.45 10.4053H84.9704C84.7575 10.4053 84.5765 10.5599 84.5447 10.7697L84.4348 11.4637L84.2606 11.2121C83.7235 10.4326 82.5265 10.172 81.331 10.172C78.5894 10.172 76.2485 12.2485 75.7924 15.1614C75.556 16.6144 75.8916 18.0038 76.7159 18.9728C77.4735 19.8637 78.5538 20.2349 79.8409 20.2349C82.05 20.2349 83.275 18.8144 83.275 18.8144L83.1644 19.5038C83.1227 19.7675 83.3257 20.0038 83.5916 20.0038H85.8257C86.1795 20.0038 86.481 19.7462 86.5363 19.3955L87.878 10.9038C87.9189 10.6425 87.7159 10.4053 87.45 10.4053ZM83.9916 15.2341C83.7538 16.6515 82.6272 17.6031 81.1924 17.6031C80.4735 17.6031 79.8962 17.372 79.5265 16.9341C79.1598 16.4993 79.0219 15.8803 79.1371 15.1909C79.3621 13.7856 80.5045 12.8031 81.9174 12.8031C82.6219 12.8031 83.1947 13.0371 83.5719 13.4788C83.9515 13.925 84.1015 14.5478 83.9916 15.2341Z" fill="#179BD7"/>
<path d="M90.375 5.97727L88.2485 19.5061C88.2068 19.7682 88.4098 20.0045 88.6742 20.0045H90.8121C91.1674 20.0045 91.4689 19.747 91.5235 19.3962L93.6205 6.11136C93.6621 5.84924 93.4591 5.61212 93.1947 5.61212H90.8008C90.5894 5.61288 90.4076 5.76742 90.375 5.97727Z" fill="#179BD7"/>
<path d="M5.50453 22.5864L5.90074 20.0697L5.01817 20.0492H0.803772L3.73256 1.47879C3.74165 1.42273 3.7712 1.37045 3.81438 1.33333C3.85756 1.29621 3.91286 1.27576 3.97044 1.27576H11.0765C13.4356 1.27576 15.0636 1.76667 15.9136 2.73561C16.3121 3.19015 16.5659 3.66515 16.6886 4.18788C16.8174 4.73636 16.8197 5.39167 16.6939 6.19091L16.6848 6.24924V6.76136L17.0833 6.98712C17.4189 7.16515 17.6856 7.36894 17.8901 7.60227C18.231 7.99091 18.4515 8.48485 18.5447 9.07045C18.6409 9.67273 18.6091 10.3894 18.4515 11.2008C18.2697 12.1341 17.9757 12.947 17.5788 13.6121C17.2136 14.225 16.7485 14.7333 16.1962 15.1273C15.6689 15.5015 15.0424 15.7856 14.3341 15.9674C13.6477 16.1462 12.8651 16.2364 12.0068 16.2364H11.4538C11.0583 16.2364 10.6742 16.3788 10.3727 16.6341C10.0704 16.8947 9.87044 17.2508 9.80907 17.6402L9.76741 17.8667L9.06741 22.3023L9.03559 22.4652C9.02726 22.5167 9.01286 22.5424 8.99165 22.5598C8.97271 22.5758 8.94544 22.5864 8.91892 22.5864H5.50453Z" fill="#253B80"/>
<path d="M17.4606 6.30835C17.4394 6.44396 17.4151 6.58259 17.3879 6.72502C16.4507 11.5364 13.2447 13.1985 9.14998 13.1985H7.06513C6.56437 13.1985 6.1424 13.5621 6.06437 14.0561L4.99695 20.8258L4.69468 22.7447C4.64392 23.069 4.89392 23.3614 5.22119 23.3614H8.91892C9.3568 23.3614 9.72877 23.0432 9.79771 22.6114L9.83407 22.4235L10.5303 18.0053L10.575 17.7629C10.6432 17.3296 11.0159 17.0114 11.4538 17.0114H12.0068C15.5894 17.0114 18.3939 15.5568 19.2136 11.3477C19.556 9.58941 19.3788 8.12123 18.4727 7.08865C18.1985 6.77729 17.8583 6.51896 17.4606 6.30835Z" fill="#179BD7"/>
<path d="M16.4803 5.91742C16.3371 5.87575 16.1894 5.83787 16.0379 5.80378C15.8856 5.77045 15.7295 5.7409 15.5689 5.71515C15.0068 5.62424 14.3909 5.58105 13.7311 5.58105H8.16136C8.02424 5.58105 7.89394 5.61212 7.77727 5.66818C7.52045 5.79166 7.32954 6.03484 7.28333 6.33257L6.09848 13.8371L6.06439 14.0561C6.14242 13.5621 6.56439 13.1985 7.06515 13.1985H9.15C13.2447 13.1985 16.4508 11.5356 17.3879 6.72499C17.4159 6.58257 17.4394 6.44393 17.4606 6.30833C17.2235 6.18257 16.9667 6.07499 16.6901 5.98333C16.622 5.9606 16.5515 5.93863 16.4803 5.91742Z" fill="#222D65"/>
<path d="M7.28332 6.33258C7.32954 6.03485 7.52044 5.79167 7.77726 5.66894C7.89469 5.61288 8.02423 5.58182 8.16135 5.58182H13.7311C14.3909 5.58182 15.0068 5.625 15.5689 5.71591C15.7295 5.74167 15.8856 5.77121 16.0379 5.80455C16.1894 5.83864 16.3371 5.87652 16.4803 5.91818C16.5515 5.93939 16.622 5.96136 16.6909 5.98333C16.9674 6.075 17.2242 6.18333 17.4614 6.30833C17.7401 4.5303 17.4591 3.3197 16.4977 2.22349C15.4379 1.01667 13.525 0.5 11.0773 0.5H3.9712C3.4712 0.5 3.04469 0.863636 2.96742 1.35833L0.00756729 20.1197C-0.050766 20.4909 0.235598 20.8258 0.60984 20.8258H4.99696L6.09848 13.8371L7.28332 6.33258Z" fill="#253B80"/>
</g>
<defs>
<clipPath id="clip0_5_85">
<rect width="93.9394" height="25" fill="white" transform="translate(0 0.5)"/>
</clipPath>
</defs>
</svg>
