<svg width="63" height="20" viewBox="0 0 63 20" fill="none" xmlns="http://www.w3.org/2000/svg">
<g clip-path="url(#clip0_5_103)">
<path d="M40.6764 0.0308228C36.307 0.0308228 32.4024 2.29554 32.4024 6.47978C32.4024 11.2783 39.3274 11.6098 39.3274 14.0204C39.3274 15.0354 38.1642 15.944 36.1775 15.944C33.3579 15.944 31.2506 14.6744 31.2506 14.6744L30.3489 18.8968C30.3489 18.8968 32.7765 19.9692 35.9996 19.9692C40.7767 19.9692 44.5357 17.5933 44.5357 13.3375C44.5357 8.267 37.5817 7.94541 37.5817 5.70793C37.5817 4.9128 38.5366 4.04159 40.5177 4.04159C42.7529 4.04159 44.5765 4.96493 44.5765 4.96493L45.459 0.886837C45.459 0.886837 43.4747 0.0308228 40.6764 0.0308228ZM0.700984 0.338604L0.595184 0.954164C0.595184 0.954164 2.43338 1.29058 4.08897 1.96166C6.22069 2.73119 6.37254 3.17917 6.73156 4.57058L10.6437 19.6518H15.888L23.9673 0.338604H18.735L13.5436 13.4698L11.4252 2.33918C11.2309 1.06529 10.2469 0.338604 9.04232 0.338604H0.700984ZM26.0712 0.338604L21.9667 19.6518H26.9561L31.0462 0.338604H26.0712ZM53.8989 0.338604C52.6958 0.338604 52.0583 0.982735 51.5906 2.10834L44.2808 19.6518H49.5131L50.5254 16.7279H56.8998L57.5153 19.6518H62.132L58.1045 0.338604H53.8989ZM54.5794 5.55644L56.1303 12.8037H51.9753L54.5794 5.55644Z" fill="#1434CB"/>
</g>
<defs>
<clipPath id="clip0_5_103">
<rect width="61.5984" height="20" fill="white" transform="translate(0.564392)"/>
</clipPath>
</defs>
</svg>
